<svg width="44" height="45" fill="none" xmlns="http://www.w3.org/2000/svg"><path d="M44 22.457C44 10.297 34.15.438 22 .438S0 10.296 0 22.457c0 10.99 8.045 20.1 18.563 21.75V28.823h-5.586v-6.365h5.585v-4.851c0-5.518 3.285-8.567 8.31-8.567 2.407 0 4.925.43 4.925.43v5.42h-2.774c-2.733 0-3.585 1.697-3.585 3.44v4.128h6.101l-.975 6.365h-5.127v15.386C35.956 42.556 44 33.447 44 22.457z" fill="#CFDCE3"/><path d="M30.564 28.822l.975-6.365h-6.102v-4.129c0-1.74.853-3.44 3.586-3.44h2.774V9.47s-2.518-.43-4.925-.43c-5.025 0-8.31 3.049-8.31 8.567v4.85h-5.585v6.366h5.585v15.386c2.278.357 4.598.357 6.875 0V28.822h5.127z" fill="#fff"/></svg>