<svg width="44" height="44" fill="none" xmlns="http://www.w3.org/2000/svg"><rect width="44" height="44" rx="22" fill="#CFDCE3"/><path fill-rule="evenodd" clip-rule="evenodd" d="M22 11.272c3.64 0 4.07.014 5.509.08 1.329.06 2.05.282 2.531.47a4.22 4.22 0 011.57 1.02c.453.44.802.977 1.02 1.57.187.482.409 1.204.47 2.534.065 1.44.079 1.87.079 5.514 0 3.643-.014 4.075-.08 5.514-.06 1.33-.282 2.052-.469 2.533a4.523 4.523 0 01-2.588 2.59c-.48.186-1.202.409-2.531.47-1.438.065-1.869.079-5.51.079-3.64 0-4.072-.014-5.509-.08-1.33-.06-2.051-.283-2.532-.47a4.221 4.221 0 01-1.57-1.02 4.226 4.226 0 01-1.02-1.57c-.186-.482-.408-1.204-.468-2.535-.066-1.439-.08-1.87-.08-5.513s.014-4.075.08-5.514c.06-1.33.282-2.052.469-2.533a4.227 4.227 0 011.02-1.571 4.22 4.22 0 011.57-1.02c.48-.188 1.202-.41 2.531-.47 1.438-.066 1.869-.08 5.51-.08l-.003.002zM22 8.812c-3.702 0-4.167.015-5.621.082-1.454.066-2.444.299-3.31.636-.91.343-1.735.88-2.416 1.574A6.699 6.699 0 009.08 13.52c-.337.867-.567 1.86-.633 3.312-.066 1.452-.083 1.92-.083 5.625 0 3.706.016 4.17.083 5.626.066 1.455.296 2.444.633 3.31.343.91.88 1.735 1.573 2.417a6.682 6.682 0 002.416 1.575c.865.337 1.858.568 3.309.634 1.45.066 1.918.082 5.621.082 3.703 0 4.168-.016 5.622-.082 1.454-.067 2.441-.297 3.307-.635a6.966 6.966 0 003.988-3.99c.337-.867.568-1.86.634-3.313.066-1.452.082-1.92.082-5.625 0-3.706-.016-4.17-.082-5.626-.067-1.455-.297-2.443-.634-3.31a6.69 6.69 0 00-1.572-2.416 6.693 6.693 0 00-2.416-1.575c-.866-.337-1.858-.568-3.31-.634-1.45-.066-1.917-.082-5.62-.082l.002-.002zm0 6.639a6.998 6.998 0 00-6.468 4.325 7.011 7.011 0 001.518 7.635 7 7 0 0011.951-4.954 7.01 7.01 0 00-4.322-6.473 6.998 6.998 0 00-2.679-.533zm0 11.556a4.544 4.544 0 01-4.2-2.809 4.553 4.553 0 013.313-6.203 4.543 4.543 0 014.667 1.935 4.552 4.552 0 01-.565 5.744A4.544 4.544 0 0122 27.007zm8.914-11.832a1.637 1.637 0 11-3.274.001 1.637 1.637 0 013.274-.001z" fill="#fff"/></svg>