<svg width="44" height="44" fill="none" xmlns="http://www.w3.org/2000/svg"><rect width="44" height="44" rx="22" fill="#CFDCE3"/><path fill-rule="evenodd" clip-rule="evenodd" d="M35.913 15.572c.217-.682 0-1.178-.96-1.178H31.76c-.805 0-1.177.434-1.394.899 0 0-1.642 3.97-3.935 6.543-.744.745-1.085.993-1.487.993-.217 0-.496-.248-.496-.93V15.54c0-.806-.248-1.178-.93-1.178h-5.02c-.495 0-.805.372-.805.744 0 .775 1.146.961 1.27 3.132v4.714c0 1.023-.186 1.21-.588 1.21-1.085 0-3.719-4.001-5.299-8.56-.31-.9-.62-1.24-1.425-1.24H8.428c-.93 0-1.084.434-1.084.899 0 .837 1.084 5.055 5.05 10.637 2.634 3.814 6.383 5.861 9.76 5.861 2.046 0 2.294-.465 2.294-1.24v-2.884c0-.93.186-1.086.837-1.086.464 0 1.3.248 3.191 2.078 2.169 2.17 2.54 3.163 3.75 3.163h3.19c.93 0 1.364-.465 1.116-1.364-.278-.9-1.332-2.202-2.695-3.753-.744-.868-1.86-1.83-2.2-2.295-.465-.62-.341-.868 0-1.426-.031 0 3.873-5.52 4.276-7.381z" fill="#fff"/></svg>